<svg xmlns="http://www.w3.org/2000/svg" width="293.2" height="293.2"><path d="M247.95 91.19c-7.068 0-13.37 3.15-17.714 8.09v-5.025c0-26.913-14.82-50.76-37.39-64.643l9.37-16.863c2.299-4.173.766-9.369-3.322-11.668-4.174-2.3-9.369-.767-11.669 3.321l-9.794 17.63a89.555 89.555 0 0 0-30.831-5.45 89.555 89.555 0 0 0-30.831 5.45l-9.71-17.63C103.76.23 98.48-1.218 94.393 1.081c-4.174 2.3-5.707 7.495-3.407 11.668l9.368 16.863C77.87 43.58 62.964 67.342 62.964 94.255v5.025c-4.343-4.94-10.646-8.09-17.715-8.09-12.945 0-23.506 10.56-23.506 23.506v72.393c0 12.946 10.56 23.507 23.506 23.507 7.07 0 13.372-3.152 17.715-8.091v10.135c0 13.712 11.158 24.869 24.87 24.869h6.302v32.194c0 12.945 10.561 23.506 23.507 23.506 12.945 0 23.506-10.56 23.506-23.506v-32.194h10.902v32.194c0 12.945 10.56 23.506 23.506 23.506s23.507-10.56 23.507-23.506v-32.194h6.302c13.712 0 24.87-11.157 24.87-24.87v-10.134c4.343 4.94 10.646 8.09 17.715 8.09 12.945 0 23.506-10.56 23.506-23.506v-72.393c0-12.946-10.56-23.507-23.506-23.507z" fill="#fff"/><path d="M247.95 97.33c-9.538 0-17.374 7.835-17.374 17.374v72.394c0 9.539 7.836 17.374 17.375 17.374s17.374-7.835 17.374-17.374v-72.394c0-9.624-7.835-17.374-17.374-17.374zm-202.7 0c-9.54 0-17.375 7.835-17.375 17.374v72.394c0 9.539 7.835 17.374 17.374 17.374 9.54 0 17.375-7.835 17.375-17.374v-72.394c0-9.624-7.836-17.374-17.375-17.374zm178.853 2.98v112.338a18.683 18.683 0 0 1-18.737 18.737h-12.434v38.326c0 9.54-7.836 17.375-17.375 17.375s-17.374-7.836-17.374-17.375v-38.326h-23.166v38.326c0 9.54-7.835 17.375-17.374 17.375-9.54 0-17.375-7.836-17.375-17.375v-38.326H87.834a18.683 18.683 0 0 1-18.737-18.737V100.311zm-39.518-68.39L196.85 9.777c.682-1.193.256-2.726-.936-3.322-.341-.17-.767-.34-1.193-.34-.851 0-1.703.425-2.129 1.277l-12.435 22.314c-10.135-4.514-21.547-7.069-33.556-7.069-12.009 0-23.421 2.555-33.556 7.07l-12.35-22.315c-.681-1.192-2.13-1.618-3.321-.937-1.193.681-1.619 2.13-.937 3.322L108.7 31.92C85.108 44.185 69.267 67.436 69.182 94.18h155.007c-.086-26.743-16.012-49.994-39.604-62.259zM110.83 65.818a6.47 6.47 0 0 1-6.473-6.473 6.47 6.47 0 0 1 6.473-6.473 6.47 6.47 0 0 1 6.473 6.473 6.47 6.47 0 0 1-6.473 6.473zm71.542 0a6.47 6.47 0 0 1-6.473-6.473 6.47 6.47 0 0 1 6.473-6.473 6.47 6.47 0 0 1 6.473 6.473 6.47 6.47 0 0 1-6.473 6.473z" fill="#77c159"/></svg>