<svg xmlns="http://www.w3.org/2000/svg" viewBox="0 0 293.2 344.3"><path d="M265.6 107.1c-8.3 0-15.7 3.7-20.8 9.5v-5.9c0-31.6-17.4-59.6-43.9-75.9l11-19.8c2.7-4.9.9-11-3.9-13.7-4.9-2.7-11-.9-13.7 3.9l-11.5 20.7c-11.2-4.1-23.4-6.4-36.2-6.4s-25 2.3-36.2 6.4L99 5.2C96.3.3 90.1-1.4 85.3 1.3c-4.9 2.7-6.7 8.8-4 13.7l11 19.8c-26.4 16.4-43.9 44.3-43.9 75.9v5.9c-5.1-5.8-12.5-9.5-20.8-9.5-15.2 0-27.6 12.4-27.6 27.6v85c0 15.2 12.4 27.6 27.6 27.6 8.3 0 15.7-3.7 20.8-9.5v11.9c0 16.1 13.1 29.2 29.2 29.2H85v37.8c0 15.2 12.4 27.6 27.6 27.6s27.6-12.4 27.6-27.6v-37.8H153v37.8c0 15.2 12.4 27.6 27.6 27.6s27.6-12.4 27.6-27.6v-37.8h7.4c16.1 0 29.2-13.1 29.2-29.2v-11.9c5.1 5.8 12.5 9.5 20.8 9.5 15.2 0 27.6-12.4 27.6-27.6v-85c0-15.2-12.4-27.6-27.6-27.6z" fill="#fff"/><path d="M265.6 114.3c-11.2 0-20.4 9.2-20.4 20.4v85c0 11.2 9.2 20.4 20.4 20.4s20.4-9.2 20.4-20.4v-85c0-11.3-9.2-20.4-20.4-20.4zm-238 0c-11.2 0-20.4 9.2-20.4 20.4v85c0 11.2 9.2 20.4 20.4 20.4S48 230.9 48 219.7v-85c0-11.3-9.2-20.4-20.4-20.4zm210 3.5v131.9c0 12.2-9.8 22-22 22H201v45c0 11.2-9.2 20.4-20.4 20.4s-20.4-9.2-20.4-20.4v-45H133v45c0 11.2-9.2 20.4-20.4 20.4s-20.4-9.2-20.4-20.4v-45H77.6c-12.2 0-22-9.8-22-22V117.8h182zm-46.4-80.3l14.4-26c.8-1.4.3-3.2-1.1-3.9-.4-.2-.9-.4-1.4-.4-1 0-2 .5-2.5 1.5L186 34.9c-11.9-5.3-25.3-8.3-39.4-8.3-14.1 0-27.5 3-39.4 8.3L92.7 8.7c-.8-1.4-2.5-1.9-3.9-1.1-1.4.8-1.9 2.5-1.1 3.9l14.4 26c-27.7 14.4-46.3 41.7-46.4 73.1h182c-.1-31.4-18.8-58.7-46.5-73.1zm-86.6 39.8c-4.2 0-7.6-3.4-7.6-7.6s3.4-7.6 7.6-7.6 7.6 3.4 7.6 7.6-3.4 7.6-7.6 7.6zm84 0c-4.2 0-7.6-3.4-7.6-7.6s3.4-7.6 7.6-7.6 7.6 3.4 7.6 7.6-3.4 7.6-7.6 7.6z" fill="#77c159"/></svg>