<svg xmlns="http://www.w3.org/2000/svg" viewBox="0 0 128 128"><path d="M116.406 6.766a59.08 59.08 0 0 1-6.835 12.132A64.223 64.223 0 0 0 64.18.1C28.972.1 0 29.096 0 64.342a64.29 64.29 0 0 0 19.937 46.544l2.367 2.1A64.195 64.195 0 0 0 63.646 128.1c33.473 0 61.612-26.23 63.995-59.659 1.75-16.364-3.05-37.062-11.235-61.675zm-87.35 104.486a5.499 5.499 0 0 1-4.268 2.033c-3.017 0-5.484-2.483-5.484-5.499 0-3.016 2.484-5.5 5.484-5.5a5.43 5.43 0 0 1 3.45 1.234c2.351 1.9 2.718 5.383.818 7.732zm87.083-19.23c-15.836 21.113-49.66 13.998-71.347 15.014 0 0-3.85.233-7.718.867 0 0 1.45-.617 3.334-1.334 15.22-5.299 22.42-6.332 31.673-11.081 17.42-8.866 34.64-28.263 38.224-48.444-6.635 19.414-26.739 36.095-45.06 42.878-12.551 4.632-35.223 9.132-35.223 9.132l-.916-.483c-15.437-7.516-15.903-40.962 12.152-51.76 12.286-4.733 24.038-2.133 37.307-5.3 14.17-3.366 30.556-13.998 37.224-27.863 7.468 22.18 16.453 56.91.35 78.373z" fill="#77bc1f"/></svg>