<?xml version="1.0" encoding="UTF-8" standalone="no"?>
<svg
   xmlns:dc="http://purl.org/dc/elements/1.1/"
   xmlns:cc="http://creativecommons.org/ns#"
   xmlns:rdf="http://www.w3.org/1999/02/22-rdf-syntax-ns#"
   xmlns:svg="http://www.w3.org/2000/svg"
   xmlns="http://www.w3.org/2000/svg"
   xmlns:sodipodi="http://sodipodi.sourceforge.net/DTD/sodipodi-0.dtd"
   xmlns:inkscape="http://www.inkscape.org/namespaces/inkscape"
   id="Layer_1"
   viewBox="0 0 128 128"
   version="1.1"
   sodipodi:docname="springboot.svg"
   inkscape:version="0.92.4 5da689c313, 2019-01-14">
  <metadata
     id="metadata11">
    <rdf:RDF>
      <cc:Work
         rdf:about="">
        <dc:format>image/svg+xml</dc:format>
        <dc:type
           rdf:resource="http://purl.org/dc/dcmitype/StillImage" />
        <dc:title></dc:title>
      </cc:Work>
    </rdf:RDF>
  </metadata>
  <defs
     id="defs9" />
  <sodipodi:namedview
     pagecolor="#ffffff"
     bordercolor="#666666"
     borderopacity="1"
     objecttolerance="10"
     gridtolerance="10"
     guidetolerance="10"
     inkscape:pageopacity="0"
     inkscape:pageshadow="2"
     inkscape:window-width="1920"
     inkscape:window-height="975"
     id="namedview7"
     showgrid="false"
     inkscape:zoom="2.4583333"
     inkscape:cx="174.3185"
     inkscape:cy="13.737369"
     inkscape:window-x="0"
     inkscape:window-y="34"
     inkscape:window-maximized="1"
     inkscape:current-layer="Layer_1" />
  <style
     id="style2">.st0{fill:#77bc1f}</style>
  <path
     class="st0"
     d="M 116.40582,6.7657985 C 114.60547,11.065239 112.3217,15.148041 109.57116,18.897552 97.535506,6.8657858 81.199017,0.1 64.179063,0.1 28.972263,0.1 0,29.096225 0,64.341635 0,81.922679 7.2013909,98.753821 19.937184,110.88558 l 2.367124,2.09973 C 33.87321,122.73403 48.52604,128.1 63.645627,128.1 c 33.473132,0 61.611903,-26.22992 63.995693,-59.658899 1.75035,-16.364535 -3.05059,-37.06184 -11.2355,-61.6753025 z M 29.055612,111.25219 c -1.033532,1.28317 -2.617172,2.03307 -4.267491,2.03307 -3.017249,0 -5.484393,-2.48301 -5.484393,-5.49928 0,-3.01627 2.483814,-5.49928 5.484393,-5.49928 1.250242,0 2.483813,0.43327 3.450667,1.23317 2.350454,1.89976 2.717192,5.38263 0.816824,7.73232 z M 116.1391,92.021365 c -15.83639,21.113925 -49.659593,13.998175 -71.347114,15.014715 0,0 -3.850744,0.2333 -7.718158,0.86655 0,0 1.450279,-0.61659 3.333976,-1.33315 15.219607,-5.29931 22.420998,-6.33252 31.672786,-11.081901 17.420031,-8.865512 34.64002,-28.262986 38.22405,-48.443692 -6.63462,19.414139 -26.738498,36.095301 -45.058704,42.877751 -12.552425,4.632729 -35.22347,9.132147 -35.22347,9.132147 L 29.105622,98.570511 C 13.669307,91.054824 13.20255,57.609179 41.257969,46.810585 53.543676,42.077867 65.295945,44.677529 78.565176,41.511275 92.734579,38.145046 109.12108,27.513097 115.78903,13.648236 c 7.46811,22.180446 16.45318,56.909257 0.35007,78.373129 z"
     id="path4"
     inkscape:connector-curvature="0"
     style="fill:#77bc1f;stroke-width:0.16667192" />
</svg>
